<?xml version="1.0" encoding="utf-8"?>
<!-- Generator: Adobe Illustrator 16.0.0, SVG Export Plug-In . SVG Version: 6.00 Build 0)  -->
<!DOCTYPE svg PUBLIC "-//W3C//DTD SVG 1.1//EN" "http://www.w3.org/Graphics/SVG/1.1/DTD/svg11.dtd">
<svg version="1.1" id="Layer_1" xmlns="http://www.w3.org/2000/svg" xmlns:xlink="http://www.w3.org/1999/xlink" x="0px" y="0px"
	 width="525.301px" height="275.512px" viewBox="53.554 20.988 525.301 275.512"
	 enable-background="new 53.554 20.988 525.301 275.512" xml:space="preserve">
<rect x="53.554" y="20.988" fill="#0C0D17" width="525.301" height="279.518"/>
<g opacity="0.8">
	<text transform="matrix(1 0 0 1 72.8315 86.0479)" fill="#72BF44" font-family="'OratorStd-Slanted'" font-size="24">Tactical</text>
	<text transform="matrix(1 0 0 1 72.8315 114.8486)" fill="#72BF44" font-family="'OratorStd-Slanted'" font-size="24">Interactive</text>
	<text transform="matrix(1 0 0 1 72.8315 143.6484)" fill="#72BF44" font-family="'OratorStd-Slanted'" font-size="24">Engagement</text>
	<text transform="matrix(1 0 0 1 72.8315 86.0479)" fill="#F8951D" font-family="'OratorStd-Slanted'" font-size="24">Tactical</text>
	<text transform="matrix(1 0 0 1 72.8315 114.8486)" fill="#8FC73E" font-family="'OratorStd-Slanted'" font-size="24">Interactive</text>
	<text transform="matrix(1 0 0 1 72.8315 143.6484)" fill="#E88924" font-family="'OratorStd-Slanted'" font-size="24">Engagement</text>
</g>
<path fill="none" d="M272.987,607.887c-0.893-9.733-9.508-16.901-19.243-16.009c-12.168,1.116-21.127,11.886-20.011,24.054
	c1.396,15.211,14.857,26.409,30.067,25.015c19.013-1.744,33.012-18.571,31.268-37.584c-2.181-23.767-23.214-41.266-46.98-39.085
	c-29.708,2.726-51.582,29.019-48.856,58.726c3.407,37.135,36.272,64.478,73.407,61.07c46.417-4.259,80.595-45.34,76.337-91.759
	c-5.324-58.023-56.676-100.745-114.699-95.422C161.749,503.546,43.649,654.888,115,640.265"/>
</svg>
